<svg width="48" height="48" fill="none" xmlns="http://www.w3.org/2000/svg"><path d="M0 24C0 10.745 10.745 0 24 0s24 10.745 24 24-10.745 24-24 24S0 37.255 0 24z" fill="#040506"/><path d="M31.712 16.988a18.393 18.393 0 00-4.586-1.41c-.216.387-.412.786-.587 1.194a17.075 17.075 0 00-5.088 0 12.733 12.733 0 00-.588-1.194c-1.583.27-3.124.746-4.585 1.414-2.902 4.293-3.688 8.48-3.295 12.607a18.486 18.486 0 005.62 2.823 13.49 13.49 0 001.204-1.942 11.909 11.909 0 01-1.894-.906c.163-.115.314-.234.465-.35a13.205 13.205 0 0011.243 0c.152.125.308.246.465.35-.606.358-1.241.661-1.9.908.345.68.748 1.328 1.203 1.94a18.407 18.407 0 005.626-2.822c.465-4.786-.788-8.934-3.303-12.612zM20.306 27.061c-1.096 0-2.002-.995-2.002-2.219 0-1.224.874-2.226 1.999-2.226 1.124 0 2.022 1.003 2.002 2.226-.02 1.224-.879 2.219-2 2.219zm7.383 0c-1.097 0-2-.995-2-2.219 0-1.224.875-2.226 2-2.226s2.018 1.004 1.999 2.227c-.019 1.223-.882 2.218-1.999 2.218z" fill="#5865F2"/></svg>