<svg width="48" height="48" fill="none" xmlns="http://www.w3.org/2000/svg"><path d="M0 24C0 10.745 10.745 0 24 0s24 10.745 24 24-10.745 24-24 24S0 37.255 0 24z" fill="#040506"/><path d="M25.537 23.646c0 4.223-3.03 7.647-6.768 7.647-3.739 0-6.769-3.423-6.769-7.647S15.03 16 18.769 16c3.738 0 6.768 3.423 6.768 7.646zm7.426 0c0 3.976-1.515 7.198-3.385 7.198-1.869 0-3.384-3.223-3.384-7.198 0-3.974 1.515-7.198 3.384-7.198 1.87 0 3.385 3.224 3.385 7.198zm3.037 0c0 3.562-.533 6.45-1.19 6.45-.658 0-1.19-2.889-1.19-6.45 0-3.56.532-6.449 1.19-6.449.657 0 1.19 2.888 1.19 6.45z" fill="#fff"/></svg>