<svg width="48" height="48" fill="none" xmlns="http://www.w3.org/2000/svg"><path d="M0 24C0 10.745 10.745 0 24 0s24 10.745 24 24-10.745 24-24 24S0 37.255 0 24z" fill="#040506"/><path d="M31.717 15.119l-16.83 7.332c-1.149.52-1.142 1.245-.21 1.567l4.198 1.48 1.606 5.562c.195.609.1.85.665.85.437 0 .63-.225.874-.493l2.099-2.306 4.366 3.644c.803.5 1.383.241 1.583-.843l2.866-15.255c.294-1.33-.448-1.932-1.217-1.538zm-12.183 10.04l9.461-6.743c.472-.324.905-.15.55.207l-8.101 8.256-.316 3.8-1.594-5.52z" fill="#57A9DB"/></svg>