<svg width="48" height="48" fill="none" xmlns="http://www.w3.org/2000/svg"><path d="M0 24C0 10.745 10.745 0 24 0s24 10.745 24 24-10.745 24-24 24S0 37.255 0 24z" fill="#040506"/><path d="M32.984 19.391c.013.2.013.399.013.6 0 6.124-4.663 13.187-13.188 13.187a13.117 13.117 0 01-7.104-2.079 9.302 9.302 0 006.86-1.92 4.64 4.64 0 01-4.33-3.217c.694.134 1.41.107 2.092-.079a4.639 4.639 0 01-3.72-4.55v-.059c.644.36 1.366.558 2.104.58a4.637 4.637 0 01-1.436-6.186 13.16 13.16 0 009.553 4.842 4.638 4.638 0 017.9-4.227 9.293 9.293 0 002.942-1.125 4.65 4.65 0 01-2.038 2.563 9.256 9.256 0 002.663-.728 9.431 9.431 0 01-2.311 2.398z" fill="#499AEA"/></svg>